<?xml version="1.0" standalone="no"?>
<!DOCTYPE svg PUBLIC "-//W3C//DTD SVG 1.1//EN" "http://www.w3.org/Graphics/SVG/1.1/DTD/svg11.dtd" >
<svg xmlns="http://www.w3.org/2000/svg">
<metadata>Generated by IcoMoon</metadata>
<defs>
<font id="icomoon" horiz-adv-x="1024">
<font-face units-per-em="1024" ascent="960" descent="-64" />
<missing-glyph horiz-adv-x="1024" />
<glyph unicode="&#x20;" d="" horiz-adv-x="512" />
<glyph unicode="&#xe600;" d="M170.667 585.956v0c-34.133 0-56.889-25.6-56.889-54.044v-236.089c0-28.444 25.6-54.044 56.889-54.044v0c31.289 0 56.889 25.6 56.889 54.044v236.089c0 28.444-25.6 54.044-56.889 54.044v0zM253.156 201.956c0-28.444 22.756-48.356 51.2-48.356h54.044v-128c0-31.289 25.6-54.044 56.889-54.044h2.844c31.289 0 56.889 25.6 56.889 54.044v128h76.8v-128c0-31.289 25.6-54.044 56.889-54.044h2.844c31.289 0 56.889 25.6 56.889 54.044v128h54.044c28.444 0 51.2 22.756 51.2 48.356v375.467h-520.533v-375.467zM640 802.134l42.667 65.422c2.844 2.844 2.844 8.533-2.844 11.378-2.844 2.844-8.533 2.844-11.378 0l-45.511-68.267c-34.133 14.222-71.111 19.911-110.933 19.911s-76.8-8.533-110.933-19.911l-45.511 68.267c-2.844 2.844-8.533 2.844-11.378 0-5.689-2.844-5.689-8.533-2.844-11.378l42.667-65.422c-79.644-36.978-130.844-108.089-130.844-190.578 0-5.689 0-8.533 0-14.222h517.689c0 5.689 0 8.533 0 14.222 0 82.489-51.2 153.6-130.844 190.578v0zM392.533 685.511c-14.222 0-25.6 11.378-25.6 25.6s11.378 25.6 25.6 25.6c14.222 0 25.6-11.378 25.6-25.6 0-17.067-11.378-25.6-25.6-25.6v0zM631.467 685.511c-14.222 0-25.6 11.378-25.6 25.6s11.378 25.6 25.6 25.6c14.222 0 25.6-11.378 25.6-25.6 0-17.067-11.378-25.6-25.6-25.6v0zM853.333 585.956v0c-34.133 0-56.889-25.6-56.889-54.044v-236.089c0-28.444 25.6-54.044 56.889-54.044v0c31.289 0 56.889 25.6 56.889 54.044v236.089c0 28.444-25.6 54.044-56.889 54.044v0z" />
<glyph unicode="&#xe601;" d="M768 938.667l-256-163.2-256 163.2-256-163.2v-777.6c0-44.8 38.4-83.2 83.2-83.2h860.8c44.8 0 83.2 38.4 83.2 83.2v777.6l-259.2 163.2zM192 42.667h-96v96h96v-96zM192 234.667h-96v96h96v-96zM192 426.667h-96v96h96v-96zM192 618.667h-96v96h96v-96zM416 42.667h-96v96h96v-96zM416 234.667h-96v96h96v-96zM416 426.667h-96v96h96v-96zM416 618.667h-96v96h96v-96zM704 42.667h-96v96h96v-96zM704 234.667h-96v96h96v-96zM704 426.667h-96v96h96v-96zM704 618.667h-96v96h96v-96zM928 42.667h-96v96h96v-96zM928 234.667h-96v96h96v-96zM928 426.667h-96v96h96v-96zM928 618.667h-96v96h96v-96z" />
<glyph unicode="&#xe602;" d="M806.4 938.667h-604.8c-108.8 0-201.6-92.8-201.6-201.6v-620.8c0-108.8 92.8-201.6 201.6-201.6h604.8c121.6 0 217.6 89.6 217.6 201.6v620.8c0 105.6-102.4 201.6-217.6 201.6zM995.2 119.467c0-96-80-176-192-176h-598.4c-96 0-176 80-176 176v614.4c0 96 80 176 176 176h595.2c96 0 192-80 192-176v-614.4zM544 653.867v0h-64c-89.6 0-163.2-73.6-163.2-163.2v-208c0-89.6 76.8-163.2 163.2-163.2h64c89.6 0 163.2 76.8 163.2 163.2v208c0 89.6-73.6 163.2-163.2 163.2zM640 372.267c0-57.6-48-102.4-108.8-102.4h-38.4c-60.8 0-108.8 44.8-108.8 102.4v112c0 57.6 48 102.4 108.8 102.4h38.4c60.8 0 108.8-44.8 108.8-102.4v-112zM777.6 842.667h-544c-83.2 0-137.6-54.4-137.6-137.6v-118.4h32c60.8 0 112-44.8 112-102.4v-112c0-60.8-51.2-105.6-112-105.6h-32v-121.6c0-80 54.4-134.4 137.6-134.4h544c99.2 0 150.4 51.2 150.4 137.6v118.4h-32c-60.8 0-112 44.8-112 102.4v112c0 57.6 51.2 102.4 112 102.4h32v121.6c0 83.2-67.2 137.6-150.4 137.6zM736 282.667c0-105.6-86.4-192-192-192h-64c-105.6 0-192 86.4-192 192v208c0 105.6 86.4 192 192 192h64c105.6 0 192-83.2 192-192v-208zM524.8 308.267c0-12.8-12.8-12.8-12.8-12.8h-3.2c-57.6 0-96 28.8-96 89.6v41.6c0 0 0 16 12.8 16s12.8-16 12.8-16v-41.6c0-44.8 25.6-60.8 70.4-60.8h3.2c0 0 12.8-3.2 12.8-16z" />
<glyph unicode="&#xe603;" d="M56.889 227.556c0 0 28.444-85.333 113.778-85.333h682.667c85.333 0 113.778 85.333 113.778 85.333h-910.222zM568.889 170.667h-113.778v28.444h113.778v-28.444zM864.711 711.111h-705.422c-8.533 0-17.067-8.533-17.067-17.067v-418.133c0-11.378 8.533-19.911 17.067-19.911h702.578c11.378 0 17.067 8.533 17.067 17.067v420.978c2.844 8.533-5.689 17.067-14.222 17.067zM824.889 312.889h-625.778v341.333h625.778v-341.333z" />
<glyph unicode="&#xe604;" d="M940.8 87.467l-211.2 211.2-89.6-89.6 211.2-211.2-83.2-83.2h256v256l-83.2-83.2zM83.2 765.867l211.2-211.2 89.6 89.6-211.2 211.2 83.2 83.2h-256v-256l83.2 83.2zM851.2 855.467l-211.2-211.2 89.6-89.6 211.2 211.2 83.2-83.2v256h-256l83.2-83.2zM384 209.067l-89.6 89.6-211.2-211.2-83.2 83.2v-256h256l-83.2 83.2 211.2 211.2z" />
<glyph unicode="&#xe605;" d="M711.111 557.511h-142.222v82.489c0 0-8.533 76.8 39.822 76.8h93.867v164.978h-162.133c0 0-133.689 0-133.689-156.444 0-34.133 0-93.867 0-167.822h-93.867v-133.689h91.022c0-213.333 0-452.267 0-452.267h164.978v452.267h108.089l34.133 133.689z" />
<glyph unicode="&#xe606;" d="M448 484.267c3.2-3.2 6.4-9.6 6.4-16 0-9.6-3.2-16-6.4-19.2s-9.6-6.4-16-6.4h-22.4v48h22.4c6.4 0 9.6-3.2 16-6.4zM982.4 237.867c-9.6-3.2-32-3.2-54.4-6.4-57.6-9.6-99.2-60.8-89.6-118.4 3.2-25.6 9.6-48 9.6-60.8 6.4-35.2-38.4-67.2-73.6-51.2-9.6 6.4-28.8 16-51.2 25.6-51.2 25.6-118.4 6.4-144-44.8-9.6-19.2-16-32-22.4-41.6-16-32-73.6-32-89.6 0-3.2 9.6-12.8 22.4-22.4 41.6-25.6 51.2-92.8 70.4-144 44.8-22.4-12.8-41.6-22.4-51.2-25.6-35.2-16-80 16-73.6 51.2 3.2 12.8 6.4 32 9.6 60.8 9.6 57.6-28.8 108.8-89.6 118.4-25.6 3.2-44.8 6.4-54.4 9.6-38.4 6.4-54.4 57.6-28.8 83.2 6.4 6.4 19.2 19.2 35.2 32 41.6 41.6 41.6 105.6 0 147.2-16 16-28.8 25.6-35.2 32-28.8 25.6-9.6 76.8 28.8 83.2 9.6 0 32 3.2 54.4 6.4 57.6 9.6 99.2 60.8 89.6 118.4-3.2 25.6-6.4 48-9.6 57.6-6.4 38.4 38.4 70.4 73.6 54.4 9.6-6.4 28.8-16 51.2-25.6 51.2-25.6 118.4-6.4 144 44.8 9.6 19.2 16 32 22.4 41.6 16 32 73.6 32 89.6 0 6.4-9.6 12.8-25.6 22.4-41.6 25.6-51.2 92.8-70.4 144-44.8 22.4 12.8 41.6 22.4 51.2 25.6 35.2 16 80-16 73.6-51.2-3.2-12.8-6.4-32-9.6-60.8-9.6-57.6 28.8-108.8 89.6-118.4 25.6-3.2 44.8-6.4 54.4-9.6 38.4-6.4 54.4-57.6 28.8-83.2-6.4-6.4-19.2-19.2-35.2-32-41.6-41.6-41.6-105.6 0-147.2 16-16 28.8-25.6 35.2-32 25.6-25.6 9.6-76.8-28.8-83.2zM329.6 529.067h-118.4v-201.6h41.6v83.2h64v38.4h-64v41.6h76.8v38.4zM496 324.267l-32 86.4c9.6 6.4 16 12.8 22.4 22.4s6.4 19.2 6.4 32c0 9.6-3.2 19.2-6.4 25.6s-6.4 12.8-12.8 19.2c-6.4 6.4-12.8 9.6-19.2 9.6-6.4 3.2-16 3.2-25.6 3.2h-67.2v-201.6h41.6v80h19.2l25.6-80h48zM656 529.067h-118.4v-201.6h118.4v38.4h-76.8v41.6h64v38.4h-64v41.6h76.8v41.6zM812.8 529.067h-118.4v-201.6h118.4v38.4h-76.8v41.6h64v38.4h-64v41.6h76.8v41.6z" />
<glyph unicode="&#xe607;" d="M648.533 881.778h-221.867c-99.556 0-167.822-19.911-230.4-71.111-48.356-39.822-79.644-99.556-79.644-159.289 0-91.022 71.111-187.733 201.956-187.733 11.378 0 25.6 0 39.822 2.844l-2.844-5.689c-5.689-11.378-11.378-22.756-11.378-42.667 0-34.133 17.067-56.889 34.133-76.8l2.844-2.844h-2.844c-54.044-2.844-156.444-11.378-227.556-54.044-88.178-48.356-93.867-122.311-93.867-142.222 0-85.333 79.644-170.667 261.689-170.667 210.489 0 321.422 113.778 321.422 224.711 0 82.489-48.356 122.311-102.4 164.978l-45.511 34.133c-14.222 11.378-31.289 25.6-31.289 51.2s17.067 42.667 31.289 56.889l2.844 2.844c48.356 34.133 102.4 76.8 102.4 167.822s-59.733 136.533-85.333 159.289h73.956c0 0 2.844 0 2.844 0l62.578 39.822c2.844 0 2.844 2.844 2.844 5.689s-2.844 2.844-5.689 2.844v0zM378.311 19.911c-128 0-213.333 56.889-213.333 145.067 0 56.889 34.133 96.711 105.244 122.311 56.889 17.067 128 19.911 128 19.911 11.378 0 17.067 0 28.444 0 91.022-62.578 133.689-93.867 133.689-156.444-2.844-79.644-71.111-130.844-182.044-130.844v0zM378.311 497.778c-108.089 0-153.6 136.533-153.6 210.489 0 36.978 8.533 65.422 25.6 88.178 19.911 22.756 54.044 39.822 85.333 39.822 99.556 0 153.6-128 153.6-219.022 0-14.222 0-56.889-31.289-85.333-17.067-19.911-51.2-34.133-79.644-34.133v0zM961.422 457.956h-116.622v113.778c0 2.844-2.844 5.689-5.689 5.689h-51.2c-2.844 0-5.689-2.844-5.689-5.689v-113.778h-116.622c-2.844 0-5.689-2.844-5.689-5.689v-51.2c0-2.844 2.844-5.689 5.689-5.689h116.622v-113.778c0-2.844 2.844-5.689 5.689-5.689h51.2c2.844 0 5.689 2.844 5.689 5.689v113.778h116.622c2.844 0 5.689 2.844 5.689 5.689v51.2c0 2.844-2.844 5.689-5.689 5.689v0z" />
<glyph unicode="&#xe608;" d="M928 938.667h-832c-44.8 0-96-48-96-96v-864c0-35.2 28.8-64 64-64h864c51.2 0 96 51.2 96 96v832c0 44.8-51.2 96-96 96zM960 10.667c0-16-16-32-32-32h-64v224h-192v-224h-576c-16 0-32 16-32 32v832c0 16 16 32 32 32h832c16 0 32-16 32-32v-832zM352 586.667v-128h-192v128h192zM608 586.667v-128h-192v128h192zM864 586.667v-128h-192v128h192zM352 394.667v-128h-192v128h192zM608 394.667v-128h-192v128h192zM864 394.667v-128h-192v128h192zM352 202.667v-128h-192v128h192zM608 202.667v-128h-192v128h192zM352 778.667v-128h-192v128h192zM608 778.667v-128h-192v128h192zM864 778.667v-128h-192v128h192z" />
<glyph unicode="&#xe609;" d="M960 682.667h-864c-48 0-96-51.2-96-96v-576c0-44.8 44.8-96 96-96h832c48 0 96 51.2 96 96v608c0 35.2-28.8 64-64 64zM960 42.667c0-35.2-32-64-64-64h-32v224h-192v-224h-576c-16 0-32 16-32 32v576c0 19.2 16 32 32 32h832c16 0 32-12.8 32-32v-544zM352 522.667v-96h-192v96h192zM608 522.667v-96h-192v96h192zM864 522.667v-96h-192v96h192zM352 362.667v-96h-192v96h192zM608 362.667v-96h-192v96h192zM864 362.667v-96h-192v96h192zM352 202.667v-96h-192v96h192zM608 202.667v-96h-192v96h192zM275.2 749.867h-44.8v76.8h-54.4v-76.8h-48v185.6h48v-70.4h54.4v70.4h48v-185.6zM476.8 842.667c0-32-6.4-54.4-22.4-70.4-12.8-16-35.2-25.6-64-25.6-25.6 0-48 9.6-60.8 25.6s-22.4 38.4-22.4 70.4c0 32 6.4 54.4 22.4 70.4s35.2 25.6 64 25.6c28.8 0 48-9.6 64-25.6 9.6-16 19.2-38.4 19.2-70.4zM355.2 842.667c0-35.2 12.8-54.4 35.2-54.4 12.8 0 19.2 3.2 25.6 12.8s9.6 22.4 9.6 41.6c0 19.2-3.2 32-9.6 41.6s-16 12.8-25.6 12.8c-22.4 0-35.2-19.2-35.2-54.4zM582.4 749.867h-48v144h-41.6v41.6h131.2v-41.6h-41.6v-144zM752 749.867h-102.4v185.6h102.4v-41.6h-54.4v-28.8h51.2v-41.6h-51.2v-35.2h54.4v-38.4zM784 749.867v185.6h48v-147.2h64v-41.6h-112z" />
<glyph unicode="&#xe60a;" d="M759.467 398.223c0 116.622 93.867 170.667 96.711 173.511-54.044 79.644-136.533 88.178-164.978 91.022-71.111 8.533-139.378-42.667-173.511-42.667-36.978 0-91.022 39.822-150.756 39.822-76.8 0-147.911-45.511-187.733-113.778-79.644-139.378-19.911-347.022 56.889-457.956 36.978-54.044 82.489-116.622 142.222-113.778 56.889 2.844 79.644 36.978 147.911 36.978s88.178-36.978 150.756-36.978c62.578 0 102.4 56.889 139.378 110.933 42.667 65.422 62.578 125.156 62.578 130.844 2.844-2.844-116.622 45.511-119.467 182.044v0zM645.689 736.711c31.289 39.822 54.044 91.022 48.356 145.067-45.511-2.844-102.4-31.289-133.689-68.267-28.444-34.133-54.044-88.178-48.356-142.222 51.2-2.844 102.4 25.6 133.689 65.422v0z" />
<glyph unicode="&#xe60b;" d="M702.578 881.778h-381.156c-36.978 0-65.422-28.444-65.422-65.422v-776.533c0-39.822 28.444-68.267 65.422-68.267h381.156c36.978 0 65.422 28.444 65.422 65.422v779.378c0 36.978-28.444 65.422-65.422 65.422v0zM418.133 841.956h187.733c5.689 0 8.533-8.533 8.533-17.067s-2.844-17.067-8.533-17.067h-187.733c-5.689 0-8.533 8.533-8.533 17.067s2.844 17.067 8.533 17.067v0zM512 36.978c-22.756 0-42.667 19.911-42.667 42.667s19.911 42.667 42.667 42.667c22.756 0 42.667-19.911 42.667-42.667s-19.911-42.667-42.667-42.667v0zM719.644 182.045h-415.289v588.8h412.444v-588.8z" />
<glyph unicode="&#xe60c;" d="M1024 490.667h-448v448h-128v-448h-448v-128h448v-448h128v448h448z" />
<glyph unicode="&#xe60d;" d="M224 554.667c0 0 44.8-48 96-48s96 32 96 32 32-48 96-48c64 0 96 48 96 48s44.8-32 96-32c48 0 96 48 96 48s48-32 96-32c51.2 0 96 32 96 32l-480 384-480-384c0 0 48-32 96-32s96 32 96 32zM864 474.667v-368h-256v352c0 0-44.8-32-96-32s-96 48-96 48-48-32-96-32-96 48-96 48-44.8-32-96-32c-44.8 0-96 32-96 32v-480c0-44.8 44.8-96 89.6-96h777.6c44.8 0 89.6 51.2 89.6 96v480c0 0-32-32-64-32-25.6 0-60.8 16-60.8 16zM448 74.667h-256v256h256v-256z" />
<glyph unicode="&#xe60e;" d="M28.8 77.867l233.6 233.6c35.2-54.4 80-99.2 134.4-134.4l-233.6-233.6c-38.4-38.4-99.2-38.4-134.4 0-38.4 35.2-38.4 96 0 134.4v0zM256 554.667c0 211.2 172.8 384 384 384s384-172.8 384-384c0-211.2-172.8-384-384-384s-384 172.8-384 384v0zM640 266.667c160 0 288 128 288 288s-128 288-288 288c-160 0-288-128-288-288s128-288 288-288v0zM864 554.667h-64c0 89.6-70.4 160-160 160v64c124.8 0 224-99.2 224-224v0z" />
<glyph unicode="&#xe60f;" d="M785.067-28.444l-34.133 327.111 216.178 221.867-304.356 42.667-150.756 318.578-150.756-318.578-304.356-39.822 216.178-224.711-34.133-327.111 273.067 173.511c0 0 0 0 0 0l273.067-173.511z" />
<glyph unicode="&#xe610;" d="M967.111 688.356c-34.133-14.222-68.267-22.756-108.089-28.444 39.822 22.756 68.267 54.044 82.489 96.711-36.978-19.911-76.8-34.133-119.467-42.667-31.289 34.133-82.489 54.044-133.689 54.044-102.4 0-187.733-76.8-187.733-173.511 0-14.222 2.844-25.6 5.689-39.822-156.444 8.533-292.978 76.8-384 179.2-17.067-22.756-28.444-51.2-28.444-85.333 0-59.733 34.133-113.778 82.489-142.222-31.289 0-59.733 8.533-85.333 22.756v-2.844c0-82.489 65.422-153.6 150.756-170.667-14.222-2.844-31.289-5.689-48.356-5.689-11.378 0-22.756 0-34.133 2.844 22.756-68.267 93.867-119.467 173.511-119.467-62.578-45.511-145.067-73.956-233.244-73.956-14.222 0-28.444 0-45.511 2.844 85.333-48.356 184.889-76.8 290.133-76.8 344.178 0 531.911 261.689 531.911 489.244v22.756c34.133 25.6 65.422 54.044 91.022 91.022v0z" />
<glyph unicode="&#xe611;" d="M864.711 472.178c14.222 17.067 22.756 31.289 31.289 42.667 54.044 76.8 79.644 125.156 71.111 147.911l-2.844 5.689c-2.844 2.844-5.689 5.689-14.222 8.533s-17.067 2.844-31.289 0h-136.533c-2.844 0-5.689 0-8.533 0s-5.689 0-5.689-2.844c0 0-2.844 0-2.844 0l-2.844-2.844c-2.844 0-2.844-2.844-5.689-5.689s-2.844-5.689-5.689-8.533c-14.222-39.822-31.289-76.8-51.2-110.933-11.378-19.911-22.756-39.822-31.289-54.044s-17.067-25.6-25.6-34.133c-5.689-8.533-11.378-14.222-17.067-17.067-5.689-5.689-8.533-5.689-11.378-5.689s-5.689 0-8.533 2.844-8.533 5.689-11.378 11.378c-2.844 5.689-5.689 11.378-5.689 19.911s-2.844 14.222-2.844 19.911c0 5.689 0 14.222 0 22.756 0 11.378 0 17.067 0 19.911 0 11.378 0 25.6 0 39.822s0 25.6 0 34.133c0 8.533 0 17.067 0 28.444 0 8.533 0 17.067-2.844 22.756 0 5.689-2.844 11.378-5.689 17.067s-5.689 8.533-8.533 11.378c-5.689 2.844-8.533 5.689-17.067 5.689-17.067 2.844-36.978 5.689-62.578 5.689-59.733 0-96.711-2.844-113.778-11.378 0-2.844-5.689-5.689-11.378-11.378-5.689-8.533-5.689-11.378-2.844-11.378 19.911-2.844 31.289-11.378 39.822-22.756l2.844-5.689c2.844-5.689 5.689-11.378 5.689-22.756 2.844-11.378 2.844-22.756 5.689-36.978 2.844-25.6 2.844-45.511 0-62.578s-2.844-31.289-5.689-39.822c-2.844-8.533-2.844-17.067-5.689-22.756s-5.689-8.533-5.689-11.378c0 0-2.844-2.844-2.844-2.844-2.844-2.844-8.533-2.844-14.222-2.844s-8.533 2.844-17.067 5.689c-5.689 5.689-14.222 11.378-19.911 19.911s-14.222 19.911-22.756 34.133c-8.533 14.222-17.067 31.289-25.6 51.2l-8.533 14.222c-2.844 11.378-8.533 22.756-17.067 42.667-8.533 17.067-14.222 34.133-22.756 51.2 0 5.689-5.689 11.378-8.533 14.222l-2.844 2.844c-2.844 0-5.689 2.844-8.533 2.844-2.844 2.844-5.689 2.844-11.378 5.689h-130.844c-14.222 0-22.756-2.844-28.444-8.533v-5.689c0-2.844 0-5.689 0-8.533s0-8.533 2.844-14.222c19.911-45.511 39.822-91.022 62.578-136.533 22.756-42.667 42.667-79.644 56.889-105.244 17.067-25.6 34.133-51.2 51.2-73.956s28.444-39.822 34.133-45.511c5.689-5.689 8.533-11.378 14.222-14.222l11.378-11.378c8.533-8.533 19.911-17.067 34.133-28.444s31.289-22.756 48.356-34.133c17.067-11.378 39.822-19.911 62.578-25.6s45.511-8.533 68.267-8.533h54.044c11.378 0 19.911 5.689 25.6 11.378l2.844 2.844c0 2.844 2.844 5.689 2.844 8.533s2.844 8.533 2.844 14.222c0 14.222 0 28.444 2.844 39.822s5.689 19.911 8.533 25.6c2.844 5.689 5.689 11.378 11.378 14.222 2.844 2.844 5.689 5.689 8.533 8.533 2.844 0 2.844 0 2.844 2.844 8.533 2.844 17.067 0 25.6-8.533 11.378-8.533 19.911-17.067 28.444-28.444s19.911-25.6 31.289-39.822c11.378-14.222 22.756-25.6 34.133-31.289l8.533-5.689c5.689-2.844 14.222-8.533 25.6-11.378s19.911-2.844 25.6-2.844l122.311 2.844c11.378 0 22.756 2.844 28.444 5.689s11.378 8.533 11.378 14.222c0 5.689 0 11.378 0 17.067s-2.844 11.378-2.844 14.222c0 2.844-2.844 5.689-2.844 5.689-17.067 31.289-45.511 65.422-91.022 110.933l-2.844 2.844c-19.911 19.911-34.133 34.133-36.978 39.822-8.533 14.222-11.378 25.6-5.689 39.822 0 5.689 14.222 28.444 39.822 62.578v0z" />
<glyph unicode="&#xe612;" d="M810.667 128h-597.333v469.333h597.333zM682.667 896v-85.333h-341.333v85.333h-85.333v-85.333h-42.667c-47.36 0-85.333-37.973-85.333-85.333v-597.333c0-47.128 38.205-85.333 85.333-85.333h597.333c47.128 0 85.333 38.205 85.333 85.333v597.333c0 47.36-38.4 85.333-85.333 85.333h-42.667v85.333zM725.333 426.667h-213.333v-213.333h213.333v213.333z" />
<glyph unicode="&#xe613;" d="M657.493 231.254l-195.413 195.413 195.413 195.84-60.16 60.16-256-256 256-256 60.16 60.587z" />
<glyph unicode="&#xe614;" d="M366.507 231.254l195.413 195.413-195.413 195.84 60.16 60.16 256-256-256-256-60.16 60.587z" />
<glyph unicode="&#xe615;" d="M810.667 665.174l-60.16 60.16-238.507-238.507-238.507 238.507-60.16-60.16 238.507-238.507-238.507-238.507 60.16-60.16 238.507 238.507 238.507-238.507 60.16 60.16-238.507 238.507 238.507 238.507z" />
</font>
</defs>
</svg>
